<?xml version="1.0" encoding="UTF-8"?>
<svg version="1.1" xmlns="http://www.w3.org/2000/svg" width="264" height="263">
<path d="M0 0 C87.12 0 174.24 0 264 0 C264 86.79 264 173.58 264 263 C176.88 263 89.76 263 0 263 C0 176.21 0 89.42 0 0 Z " fill="#FEFEFE" transform="translate(0,0)"/>
<path d="M0 0 C2.6875 -0.4375 2.6875 -0.4375 5 0 C6 1 6 1 6.25 3.25 C6 6 6 6 4.4375 8.5625 C2.73814877 10.83692173 2.73814877 10.83692173 3.375 13.0625 C3.58125 13.701875 3.7875 14.34125 4 15 C3.7215625 15.928125 3.7215625 15.928125 3.4375 16.875 C2.78405731 19.10584402 2.78405731 19.10584402 3.9375 21.5625 C5.93869541 28.03695574 6.46427708 33.0919731 3.328125 39.3203125 C1.72157603 41.94716476 -0.00135626 44.48787979 -1.73046875 47.03515625 C-4.35578448 50.9206896 -6.72984481 54.92405737 -9.05078125 58.99609375 C-9.76106703 60.23372435 -10.47135349 61.47135455 -11.18164062 62.70898438 C-12.24714248 64.56783639 -13.30761179 66.42876311 -14.35375977 68.29858398 C-15.34185457 70.06046241 -16.35218888 71.80981156 -17.36328125 73.55859375 C-17.94376221 74.58267334 -18.52424316 75.60675293 -19.12231445 76.66186523 C-21 79 -21 79 -23.60229492 79.96508789 C-24.78915894 79.98236938 -24.78915894 79.98236938 -26 80 C-26.66 79.34 -27.32 78.68 -28 78 C-27.65872969 74.42749863 -26.59210043 71.953306 -24.62890625 68.98828125 C-24.14131836 68.23885254 -23.65373047 67.48942383 -23.15136719 66.71728516 C-22.62704102 65.92370605 -22.10271484 65.13012695 -21.5625 64.3125 C-17.28409259 57.67773709 -13.13513166 50.99858491 -9.25 44.125 C-8.82017822 43.38290283 -8.39035645 42.64080566 -7.94750977 41.8762207 C-7.55748779 41.177146 -7.16746582 40.47807129 -6.765625 39.7578125 C-6.25177246 38.84733154 -6.25177246 38.84733154 -5.72753906 37.91845703 C-4.82280275 35.53274632 -4.8767586 33.52972063 -5 31 C-5.53890869 31.91177002 -6.07781738 32.82354004 -6.63305664 33.76293945 C-8.66458309 37.19892578 -10.69853191 40.63347314 -12.7331543 44.06762695 C-13.60749669 45.54413353 -14.48121254 47.02101132 -15.35424805 48.49829102 C-18.21786843 53.3432804 -21.09875337 58.17744703 -24 63 C-24.52941193 63.88434723 -24.52941193 63.88434723 -25.06951904 64.78656006 C-26.01433792 66.35717771 -26.97346888 67.91916072 -27.93359375 69.48046875 C-28.45880615 70.33922607 -28.98401855 71.1979834 -29.52514648 72.08276367 C-31 74 -31 74 -34 75 C-36.4453125 73.890625 -36.4453125 73.890625 -39.125 72.25 C-40.01445312 71.71890625 -40.90390625 71.1878125 -41.8203125 70.640625 C-44 69 -44 69 -45 66 C-43.71166992 63.2512207 -43.71166992 63.2512207 -41.73046875 59.92578125 C-41.2028167 59.03122223 -41.2028167 59.03122223 -40.664505 58.11859131 C-39.51555732 56.17704933 -38.35198102 54.24475859 -37.1875 52.3125 C-36.39516241 50.9820888 -35.60349668 49.65127723 -34.8125 48.32006836 C-29.69476275 39.7288603 -24.5120745 31.17870595 -19.11181641 22.76171875 C-17.90364338 20.84731898 -16.73773949 18.91058118 -15.57421875 16.96875 C-14.7787151 15.66662435 -13.98314473 14.36453945 -13.1875 13.0625 C-12.66349609 12.16446655 -12.66349609 12.16446655 -12.12890625 11.24829102 C-10.41966474 8.49156825 -9.57217349 7.14918894 -6.36328125 6.3125 C-5.58339844 6.209375 -4.80351562 6.10625 -4 6 C-3.34 4.989375 -2.68 3.97875 -2 2.9375 C-1.34 1.968125 -0.68 0.99875 0 0 Z " fill="#1D1F1E" transform="translate(198,47)"/>
<path d="M0 0 C3.43931834 1.3073075 6.61300905 2.81036334 9.8125 4.625 C10.60269531 5.07101563 11.39289063 5.51703125 12.20703125 5.9765625 C12.79871094 6.31429687 13.39039063 6.65203125 14 7 C12.6091386 11.87173378 10.42459125 15.84653995 7.6875 20.0625 C6.78680025 21.47204316 5.88711421 22.88223444 4.98828125 24.29296875 C4.50697754 25.04626465 4.02567383 25.79956055 3.52978516 26.57568359 C1.90204486 29.15523373 0.31277094 31.75562861 -1.26953125 34.36328125 C-10.43873146 49.45966665 -20.37213096 61.69137484 -33 74 C-33.66 73.67 -34.32 73.34 -35 73 C-31.10599569 51.73274567 -20.92815492 34.79205101 -9.60791016 16.61425781 C-6.25498972 11.16283478 -3.11846763 5.58806156 0 0 Z " fill="#1C1E1D" transform="translate(147,122)"/>
<path d="M0 0 C0.7421875 1.7421875 0.7421875 1.7421875 1 4 C-0.6171875 6.0703125 -0.6171875 6.0703125 -2.875 8.125 C-5.84692355 10.7536283 -5.84692355 10.7536283 -8 14 C-1.29765576 11.42952922 -1.29765576 11.42952922 5.125 8.25 C8.97360676 6.57669271 11.82914912 6.78426633 16 7 C16 8.65 16 10.3 16 12 C16.589021 11.93941406 17.17804199 11.87882813 17.78491211 11.81640625 C20.50198983 11.5396151 23.21971686 11.26977324 25.9375 11 C26.86369141 10.90460938 27.78988281 10.80921875 28.74414062 10.7109375 C34.52911107 10.14258953 40.18730276 9.90461215 46 10 C46 10.99 46 11.98 46 13 C17.08185053 16.38790036 17.08185053 16.38790036 12 13 C11.505 11.515 11.505 11.515 11 10 C9.98679688 10.5053125 8.97359375 11.010625 7.9296875 11.53125 C6.57842351 12.18811444 5.22684411 12.84433029 3.875 13.5 C3.20984375 13.83386719 2.5446875 14.16773438 1.859375 14.51171875 C-2.22443131 16.47354727 -5.36543163 17.60510685 -10 17 C-10.66 16.34 -11.32 15.68 -12 15 C-12 12.17481113 -11.47835337 10.53632556 -9.58984375 8.41894531 C-9.04457031 7.89397461 -8.49929687 7.36900391 -7.9375 6.828125 C-7.38964844 6.29606445 -6.84179688 5.76400391 -6.27734375 5.21582031 C-5.85582031 4.81459961 -5.43429688 4.41337891 -5 4 C-6.86290521 4.76141706 -8.72565306 5.52322119 -10.58764648 6.28686523 C-12.16057659 6.9315623 -13.73431591 7.57428841 -15.30883789 8.21508789 C-19.26097686 9.83252594 -23.11901193 11.52133841 -26.9375 13.4375 C-31.4438353 15.48823462 -36.12502205 15.7925295 -41 15 C-41.66 14.34 -42.32 13.68 -43 13 C-42.9375 10.625 -42.9375 10.625 -42 8 C-38.14183001 4.34489159 -35.09944324 2.8508288 -29.8125 2.9375 C-27.9253125 2.9684375 -27.9253125 2.9684375 -26 3 C-27.29323107 5.58646214 -28.25699997 5.63668534 -30.9375 6.5625 C-33.03793267 7.29822324 -35.00802626 8.00401313 -37 9 C-37.33 9.99 -37.66 10.98 -38 12 C-29.33422061 9.67279423 -21.40925177 6.57547556 -13.35791016 2.64257812 C-8.619329 0.4109205 -5.24144206 -0.41488987 0 0 Z " fill="#272727" transform="translate(63,185)"/>
<path d="M0 0 C0.33 0 0.66 0 1 0 C2.07924218 7.47004885 -1.67216861 12.60987179 -5.375 18.875 C-5.97828125 19.93203125 -6.5815625 20.9890625 -7.203125 22.078125 C-11.69778481 29.84889241 -11.69778481 29.84889241 -14 31 C-14 30.34 -14 29.68 -14 29 C-14.66 29 -15.32 29 -16 29 C-13.69945049 22.83120765 -10.25742365 17.35089917 -6.9375 11.6875 C-5.96200195 10.00430664 -5.96200195 10.00430664 -4.96679688 8.28710938 C-4.03770508 6.69672852 -4.03770508 6.69672852 -3.08984375 5.07421875 C-2.52128662 4.10057373 -1.95272949 3.12692871 -1.36694336 2.1237793 C-0.91585205 1.42293213 -0.46476074 0.72208496 0 0 Z " fill="#EBECEC" transform="translate(193,76)"/>
<path d="M0 0 C0 0.99 0 1.98 0 3 C-10.35488814 4.21312497 -20.55286325 5.37534623 -31 5 C-31 4.67 -31 4.34 -31 4 C-28.36 4 -25.72 4 -23 4 C-23 3.34 -23 2.68 -23 2 C-15.72900239 -0.42366587 -7.59562221 -0.1245184 0 0 Z " fill="#505050" transform="translate(109,195)"/>
<path d="M0 0 C1.8871875 0.0309375 1.8871875 0.0309375 3.8125 0.0625 C2.52356389 2.64037222 1.61300191 2.66086566 -1.0625 3.5625 C-3.86653704 4.51442401 -5.66331842 5.37971228 -8.1875 7.0625 C-8.5175 8.0525 -8.8475 9.0425 -9.1875 10.0625 C-7.5375 10.0625 -5.8875 10.0625 -4.1875 10.0625 C-4.1875 10.7225 -4.1875 11.3825 -4.1875 12.0625 C-7.5625 12.1875 -7.5625 12.1875 -11.1875 12.0625 C-11.8475 11.4025 -12.5075 10.7425 -13.1875 10.0625 C-13.125 7.6875 -13.125 7.6875 -12.1875 5.0625 C-8.32933001 1.40739159 -5.28694324 -0.0866712 0 0 Z " fill="#272727" transform="translate(33.1875,187.9375)"/>
<path d="M0 0 C2.475 0.99 2.475 0.99 5 2 C4.59007812 2.47050781 4.18015625 2.94101563 3.7578125 3.42578125 C3.21898437 4.04839844 2.68015625 4.67101562 2.125 5.3125 C1.59132813 5.92738281 1.05765625 6.54226562 0.5078125 7.17578125 C-1.1640447 9.13498212 -1.1640447 9.13498212 -3 12 C-2.01 12.33 -1.02 12.66 0 13 C-1.98 13.33 -3.96 13.66 -6 14 C-6.9375 11.9375 -6.9375 11.9375 -7 9 C-5.33673676 6.97099301 -3.532448 5.28597661 -1.56640625 3.55078125 C-1.04949219 3.03902344 -0.53257813 2.52726563 0 2 C0 1.34 0 0.68 0 0 Z " fill="#222222" transform="translate(58,187)"/>
<path d="M0 0 C0.33 0.99 0.66 1.98 1 3 C-0.76755526 3.84026396 -2.53917263 4.67198722 -4.3125 5.5 C-5.29863281 5.9640625 -6.28476562 6.428125 -7.30078125 6.90625 C-10 8 -10 8 -13 8 C-13 7.34 -13 6.68 -13 6 C-14.65 6 -16.3 6 -18 6 C-17.67 5.01 -17.34 4.02 -17 3 C-17 3.66 -17 4.32 -17 5 C-14.87434778 4.35631658 -12.74949654 3.70998756 -10.625 3.0625 C-9.44164062 2.70285156 -8.25828125 2.34320313 -7.0390625 1.97265625 C-0.87550201 0 -0.87550201 0 0 0 Z " fill="#272928" transform="translate(42,192)"/>
<path d="M0 0 C0 1.32 0 2.64 0 4 C-3.82320557 5.42258812 -6.91281305 6.24042276 -11 6 C-10.875 4.1875 -10.875 4.1875 -10 2 C-6.45371784 -0.28538184 -4.05371308 -1.71503246 0 0 Z " fill="#F1F1F1" transform="translate(36,191)"/>
<path d="M0 0 C0.66 0.99 1.32 1.98 2 3 C2.66 2.67 3.32 2.34 4 2 C4.66 3.32 5.32 4.64 6 6 C5.01 7.32 4.02 8.64 3 10 C1.35 9.67 -0.3 9.34 -2 9 C-2.6875 7.3125 -2.6875 7.3125 -3 5 C-1.5625 2.25 -1.5625 2.25 0 0 Z M1 4 C2 6 2 6 2 6 Z " fill="#262827" transform="translate(173,117)"/>
<path d="M0 0 C1.21236328 0.01353516 1.21236328 0.01353516 2.44921875 0.02734375 C3.37154297 0.04474609 3.37154297 0.04474609 4.3125 0.0625 C4.3125 1.0525 4.3125 2.0425 4.3125 3.0625 C-0.9675 3.0625 -6.2475 3.0625 -11.6875 3.0625 C-7.42359692 0.93054846 -4.68024487 -0.06782964 0 0 Z " fill="#232323" transform="translate(104.6875,194.9375)"/>
<path d="M0 0 C0.66 0.66 1.32 1.32 2 2 C2.66 1.67 3.32 1.34 4 1 C4.66 1.33 5.32 1.66 6 2 C4.55746343 5.36591866 2.66735273 7.51047079 0 10 C-0.66 9.67 -1.32 9.34 -2 9 C-1.34 6.03 -0.68 3.06 0 0 Z " fill="#2B2C2B" transform="translate(114,186)"/>
<path d="M0 0 C1.98 0.495 1.98 0.495 4 1 C3.67 1.99 3.34 2.98 3 4 C4.65 4 6.3 4 8 4 C8 4.66 8 5.32 8 6 C4.625 6.125 4.625 6.125 1 6 C0.34 5.34 -0.32 4.68 -1 4 C-0.625 1.875 -0.625 1.875 0 0 Z " fill="#191919" transform="translate(21,194)"/>
<path d="M0 0 C0.33 1.32 0.66 2.64 1 4 C3.31 4 5.62 4 8 4 C8 4.66 8 5.32 8 6 C5.03 6 2.06 6 -1 6 C-1.33 4.35 -1.66 2.7 -2 1 C-1.34 0.67 -0.68 0.34 0 0 Z " fill="#0F0F0F" transform="translate(78,193)"/>
<path d="M0 0 C1.32 0.66 2.64 1.32 4 2 C4 2.99 4 3.98 4 5 C2.02 5.33 0.04 5.66 -2 6 C-1.34 4.02 -0.68 2.04 0 0 Z " fill="#292929" transform="translate(147,122)"/>
<path d="M0 0 C0.66 1.32 1.32 2.64 2 4 C0.02 6.31 -1.96 8.62 -4 11 C-4.66 10.67 -5.32 10.34 -6 10 C-4.02 6.7 -2.04 3.4 0 0 Z " fill="#282A29" transform="translate(186,58)"/>
<path d="M0 0 C2.31 0 4.62 0 7 0 C7.33 1.32 7.66 2.64 8 4 C5.36 3.67 2.72 3.34 0 3 C0 2.01 0 1.02 0 0 Z " fill="#202020" transform="translate(56,185)"/>
<path d="M0 0 C2.475 0.99 2.475 0.99 5 2 C3.35 3.65 1.7 5.3 0 7 C-0.93423645 3.98968256 -1.04449911 3.13349732 0 0 Z " fill="#333333" transform="translate(58,187)"/>
<path d="M0 0 C0.33 0.66 0.66 1.32 1 2 C3.64 1.67 6.28 1.34 9 1 C9.33 1.99 9.66 2.98 10 4 C8.35 4.33 6.7 4.66 5 5 C5 4.34 5 3.68 5 3 C3.35 3 1.7 3 0 3 C0 2.01 0 1.02 0 0 Z " fill="#505050" transform="translate(24,195)"/>
<path d="M0 0 C0.99 0 1.98 0 3 0 C1.25 4.875 1.25 4.875 -1 6 C-1.66 5.67 -2.32 5.34 -3 5 C-3 4.01 -3 3.02 -3 2 C-2.01 2 -1.02 2 0 2 C0 1.34 0 0.68 0 0 Z " fill="#252726" transform="translate(201,51)"/>
<path d="M0 0 C0.66 0.33 1.32 0.66 2 1 C1.34 2.98 0.68 4.96 0 7 C-0.99 7 -1.98 7 -3 7 C-1.125 2.25 -1.125 2.25 0 0 Z " fill="#242625" transform="translate(172,81)"/>
<path d="M0 0 C1.98 0.495 1.98 0.495 4 1 C4 2.32 4 3.64 4 5 C2.35 4.67 0.7 4.34 -1 4 C-0.67 2.68 -0.34 1.36 0 0 Z " fill="#E5E6E6" transform="translate(32,190)"/>
<path d="M0 0 C0.66 1.32 1.32 2.64 2 4 C0.02 4.99 0.02 4.99 -2 6 C-2 6.66 -2 7.32 -2 8 C-2.66 7.67 -3.32 7.34 -4 7 C-2.68 4.69 -1.36 2.38 0 0 Z " fill="#282A29" transform="translate(133,146)"/>
</svg>
